<svg width="32" height="32" viewBox="0 0 32 32" fill="none" xmlns="http://www.w3.org/2000/svg">
<g clip-path="url(#clip0_403_7551)">
<path d="M12.2275 20.8857C11.7932 20.6881 11.4552 20.3263 11.2875 19.8797C11.1199 19.433 11.1364 18.9381 11.3335 18.5037L11.5615 18.0037L14.8375 19.4926L14.6095 19.9926C14.4118 20.4267 14.0499 20.7646 13.6033 20.932C13.1566 21.0994 12.6618 21.0828 12.2275 20.8857Z" fill="black" stroke="black" stroke-width="0.25"/>
<path d="M18.7385 5.73462L18.4275 6.3616C19.1843 6.64296 19.8305 7.1604 20.2704 7.8374C20.7104 8.51441 20.9208 9.31503 20.8706 10.1209C20.8204 10.9267 20.5121 11.695 19.9914 12.3121C19.4708 12.9292 18.7654 13.3624 17.9795 13.5476L20.6005 14.7816C21.3938 14.2116 22.0051 13.4241 22.3605 12.5143C22.7159 11.6044 22.8002 10.611 22.6033 9.65427C22.4064 8.69749 21.9367 7.81822 21.2508 7.12265C20.565 6.42708 19.6924 5.94499 18.7385 5.73462Z" fill="black" stroke="black" stroke-width="0.25"/>
<path d="M9.38654 12.2356C9.28654 12.1886 9.19253 12.1356 9.09553 12.0776C8.23533 11.6027 7.5334 10.8859 7.07673 10.0159C6.62005 9.14593 6.4287 8.16107 6.52643 7.18338C6.62417 6.20569 7.00668 5.27819 7.62653 4.51582C8.24639 3.75346 9.07632 3.18976 10.0135 2.89459L9.76154 2.37759L9.70551 2.27759C8.25671 2.55924 6.95175 3.33792 6.01588 4.47919C5.08 5.62046 4.57198 7.05269 4.57954 8.52859C4.62223 9.76104 4.99897 10.9587 5.6695 11.9937C6.34003 13.0286 7.27917 13.8619 8.38654 14.4046L24.1975 21.9826L22.3615 25.0906H17.2275C16.6256 25.0953 16.0327 25.2386 15.4951 25.5095C14.9574 25.7804 14.4895 26.1716 14.1275 26.6526C13.679 27.2395 13.1112 27.7246 12.4616 28.0761C11.8119 28.4275 11.0952 28.6373 10.3585 28.6916L10.0895 29.2426C10.7659 29.5744 11.5091 29.7475 12.2625 29.7486C13.6085 29.7486 14.3275 29.6146 15.0625 28.6916C15.2881 28.3184 15.6073 28.0105 15.9884 27.7984C16.3695 27.5864 16.7994 27.4775 17.2355 27.4826H23.6995L27.5615 20.9456L9.38654 12.2356Z" fill="black" stroke="black" stroke-width="0.25"/>
</g>
<defs>
<clipPath id="clip0_403_7551">
<rect width="23.459" height="27.735" fill="white" transform="translate(4.2705 2.13257)"/>
</clipPath>
</defs>
</svg>
