<svg width="158" height="130" viewBox="0 0 158 130" fill="none" xmlns="http://www.w3.org/2000/svg">
<rect width="158" height="130" rx="2" fill="#E9EBF3"/>
<g clip-path="url(#clip0_107_4174)">
<path d="M107.333 41.2H50.6667C47.5387 41.2036 45.0037 43.7386 45 46.8666V83.1333C45.0037 86.2613 47.5387 88.7963 50.6667 88.7999H107.333C107.651 88.8012 107.969 88.7735 108.282 88.7172C111.009 88.2608 113.005 85.8982 113 83.1333V46.8666C112.996 43.7385 110.461 41.2036 107.333 41.2ZM50.6667 86.5333C48.905 86.533 47.4353 85.1873 47.2803 83.4325L69.8767 68.6584L92.8561 86.5333H50.6667ZM110.733 83.1333C110.735 84.7967 109.53 86.2161 107.889 86.4846C107.705 86.5176 107.519 86.5339 107.333 86.5333H96.5474L81.5319 74.8475L94.9596 64.1103L110.733 73.5748V83.1333ZM110.733 70.9318L95.4503 61.762C95.044 61.5176 94.5286 61.5521 94.1583 61.8482L79.6891 73.4195L70.6281 66.3724C70.2463 66.0758 69.7184 66.0538 69.3134 66.318L47.2667 80.7329V46.8666C47.2667 44.9888 48.7889 43.4666 50.6667 43.4666H107.333C109.211 43.4666 110.733 44.9888 110.733 46.8666V70.9318Z" fill="#242424"/>
<path d="M79 48C75.2444 48 72.2 51.0444 72.2 54.8C72.2037 58.554 75.246 61.5963 79 61.6C82.7556 61.6 85.8 58.5556 85.8 54.8C85.8 51.0444 82.7556 48 79 48ZM79 59.3333C76.4963 59.3333 74.4667 57.3037 74.4667 54.8C74.4667 52.2963 76.4963 50.2667 79 50.2667C81.5037 50.2667 83.5333 52.2963 83.5333 54.8C83.5333 57.3037 81.5037 59.3333 79 59.3333Z" fill="#242424"/>
</g>
<defs>
<clipPath id="clip0_107_4174">
<rect width="68" height="68" fill="white" transform="translate(45 31)"/>
</clipPath>
</defs>
</svg>
