<svg width="72" height="20" viewBox="0 0 72 20" fill="none" xmlns="http://www.w3.org/2000/svg">
<path fill-rule="evenodd" clip-rule="evenodd" d="M61.1702 20C66.6964 20 71.0202 15.5051 71.0202 9.97645C71.0202 4.49486 66.6915 0 61.1702 0C59.8664 0.00551759 58.5765 0.268072 57.3743 0.77264C56.1721 1.27721 55.0812 2.01389 54.164 2.94052C53.2468 3.86715 52.5214 4.96554 52.0292 6.17285C51.5369 7.38016 51.2876 8.67268 51.2954 9.97645C51.2954 15.5051 55.644 20 61.1702 20ZM55.7426 14.1949C54.1193 13.171 52.8189 11.7085 51.9921 9.97645C52.8294 8.25624 54.1335 6.80612 55.7555 5.79165C57.3775 4.77718 59.2521 4.23924 61.1653 4.23924C63.0784 4.23924 64.953 4.77718 66.5751 5.79165C68.1971 6.80612 69.5012 8.25624 70.3384 9.97645C69.5116 11.7085 68.2113 13.171 66.5879 14.1949C64.9646 15.2187 63.0845 15.7621 61.1653 15.7621C59.246 15.7621 57.366 15.2187 55.7426 14.1949ZM65.567 12.9239C66.1485 12.0511 66.4579 11.0253 66.456 9.97645C66.4573 9.28183 66.3215 8.59379 66.0563 7.95177C65.7912 7.30974 65.4019 6.72637 64.9109 6.23508C64.4198 5.7438 63.8366 5.35427 63.1947 5.08883C62.5528 4.82339 61.8648 4.68726 61.1702 4.68824C60.1214 4.68578 59.0955 4.99468 58.2223 5.57579C57.3492 6.1569 56.6682 6.98408 56.2656 7.95255C55.863 8.92102 55.7569 9.98719 55.9607 11.016C56.1646 12.0448 56.6692 12.99 57.4106 13.7318C58.1521 14.4736 59.097 14.9787 60.1257 15.183C61.1545 15.3873 62.2207 15.2817 63.1893 14.8795C64.158 14.4774 64.9855 13.7968 65.567 12.9239ZM9.59216 1.20736C4.13041 1.20736 0 4.8444 0 10.2318C0 15.5944 4.13041 19.2562 9.59216 19.2562C14.1688 19.2562 16.4944 16.4819 17.5133 14.1539L12.9639 12.0615C12.5226 13.4226 11.1615 14.6002 9.59216 14.6002C7.05839 14.6002 5.35763 12.6639 5.35763 10.2318C5.35763 7.79965 7.05839 5.86336 9.59216 5.86336C11.1566 5.86336 12.5226 7.041 12.9639 8.39962L17.5257 6.28235C16.4671 3.87502 14.1688 1.20736 9.59216 1.20736ZM18.6389 1.48763V18.9415L29.5971 18.934C33.1003 18.934 34.7465 16.6333 34.7465 14.2012C34.7465 11.95 33.3086 10.2245 31.4268 9.93687C33.1201 9.56994 34.4019 8.10471 34.4019 5.93538C34.4019 3.89497 32.835 1.48763 29.2253 1.48763H18.6389ZM28.9653 6.48462C29.0192 6.60782 29.0477 6.74058 29.0492 6.87501L29.0443 6.88245C29.0469 7.02081 29.0217 7.1583 28.9702 7.28672C28.9186 7.41514 28.8417 7.53187 28.7441 7.62995C28.6465 7.72804 28.5301 7.80547 28.4019 7.85765C28.2738 7.90982 28.1364 7.93567 27.998 7.93365H23.9197V5.88332H28.003C28.1373 5.87766 28.2714 5.89905 28.3973 5.94619C28.5232 5.99334 28.6384 6.06529 28.736 6.15778C28.8335 6.25027 28.9115 6.36141 28.9653 6.48462ZM28.1493 12.3169C28.9178 12.3169 29.3889 12.8128 29.3889 13.4425L29.3839 13.4499C29.3839 14.1045 28.9129 14.5482 28.1542 14.5482H23.9197V12.3169H28.1493ZM35.0068 16.4817L35.0111 16.4756C36.8652 18.1494 39.393 19.246 43.109 19.246C47.7898 19.246 50.6384 17.0222 50.6384 13.1769C50.6384 8.87364 46.3524 8.04898 43.4788 7.49606C42.0296 7.21723 40.9397 7.00751 40.9397 6.45565C40.9397 6.01186 41.2272 5.66973 42.2735 5.66973C44.1207 5.69615 45.9127 6.30333 47.3956 7.4052L50.2194 3.66651C48.2336 2.04509 45.6725 1.23438 42.8214 1.23438C38.0389 1.23438 35.582 4.05823 35.582 7.01348C35.582 11.621 39.9431 12.38 42.824 12.8814C44.2448 13.1287 45.3056 13.3133 45.3056 13.8661C45.3056 14.5603 44.3635 14.8082 43.3718 14.8082C41.2786 14.8104 39.2653 14.0049 37.7514 12.5595L35.0111 16.4756L35.0068 16.4718V16.4817Z" fill="black"/>
</svg>
