<svg width="62" height="55" viewBox="0 0 62 55" fill="none" xmlns="http://www.w3.org/2000/svg">
<g filter="url(#filter0_d_24_1337)">
<path d="M46.1055 11.3774L46.0996 11.3811L45.8191 10.9555C44.7068 9.26766 42.3474 8.74586 40.5495 9.79007C38.7516 10.8343 38.1958 13.0492 39.3081 14.737L37.0926 11.3752C35.9803 9.68738 33.6209 9.16558 31.823 10.2098C30.0251 11.254 29.4692 13.4689 30.5815 15.1568L28.5674 12.1006C27.4551 10.4127 24.9872 9.95394 23.1893 10.9982C21.3914 12.0424 20.802 14.4177 21.9143 16.1055L15.3943 6.2283C14.282 4.54046 11.9226 4.01865 10.1247 5.06286C8.32678 6.10708 7.77094 8.322 8.88325 10.0098L21.9412 29.8243C21.9412 29.8243 12.4229 22.3694 9.21112 27.3279C8.08828 29.0613 8.62618 31.3152 10.46 32.3893L24.1019 40.3795C24.1019 40.3795 32.3992 45.1137 38.9292 41.3212L47.6106 36.2792C53.6038 32.7984 55.3912 25.4534 51.6834 19.8272L46.1055 11.3774Z" fill="white"/>
<path d="M46.1055 11.3774L46.0996 11.3811L45.8191 10.9555C44.7068 9.26766 42.3474 8.74586 40.5495 9.79007C38.7516 10.8343 38.1958 13.0492 39.3081 14.737L37.0926 11.3752C35.9803 9.68738 33.6209 9.16558 31.823 10.2098C30.0251 11.254 29.4692 13.4689 30.5815 15.1568L28.5674 12.1006C27.4551 10.4127 24.9872 9.95394 23.1893 10.9982C21.3914 12.0424 20.802 14.4177 21.9143 16.1055L15.3943 6.2283C14.282 4.54046 11.9226 4.01865 10.1247 5.06286C8.32678 6.10708 7.77094 8.322 8.88325 10.0098L21.9412 29.8243C21.9412 29.8243 12.4229 22.3694 9.21112 27.3279C8.08828 29.0613 8.62618 31.3152 10.46 32.3893L24.1019 40.3795C24.1019 40.3795 32.3992 45.1137 38.9292 41.3212L47.6106 36.2792C53.6038 32.7984 55.3912 25.4534 51.6834 19.8272L46.1055 11.3774Z" stroke="black" stroke-width="2"/>
</g>
<defs>
<filter id="filter0_d_24_1337" x="0.28418" y="0.551025" width="61.354" height="54.2163" filterUnits="userSpaceOnUse" color-interpolation-filters="sRGB">
<feFlood flood-opacity="0" result="BackgroundImageFix"/>
<feColorMatrix in="SourceAlpha" type="matrix" values="0 0 0 0 0 0 0 0 0 0 0 0 0 0 0 0 0 0 127 0" result="hardAlpha"/>
<feOffset dy="4"/>
<feGaussianBlur stdDeviation="3.5"/>
<feColorMatrix type="matrix" values="0 0 0 0 0 0 0 0 0 0 0 0 0 0 0 0 0 0 0.1 0"/>
<feBlend mode="normal" in2="BackgroundImageFix" result="effect1_dropShadow_24_1337"/>
<feBlend mode="normal" in="SourceGraphic" in2="effect1_dropShadow_24_1337" result="shape"/>
</filter>
</defs>
</svg>
