<svg width="135" height="25" viewBox="0 0 135 25" fill="none" xmlns="http://www.w3.org/2000/svg">
<path d="M9.30901 0.952148H0L3.078 4.51315V17.9722H7.578V12.5771H9.41101C12.972 12.5771 16.219 10.7712 16.219 6.60815C16.222 2.31415 13.028 0.952148 9.30901 0.952148ZM9.20401 9.01715H7.58101V4.51715H9.10001C10.828 4.51715 11.823 5.09316 11.823 6.61716C11.823 8.14116 10.985 9.01816 9.20401 9.01816V9.01715Z" fill="black"/>
<path d="M31.417 6.45117C31.417 2.20917 28.275 0.951172 24.609 0.951172H18.168V17.9712H22.668V12.2642H24.399L27.329 17.9712H32.356L28.646 11.3422C29.529 10.8793 30.2599 10.1719 30.7514 9.3045C31.2428 8.43711 31.4739 7.44648 31.417 6.45117ZM22.671 4.51317H24.294C26.074 4.51317 27.017 4.98417 27.017 6.45117C27.017 7.91817 26.074 8.70317 24.294 8.70317H22.671V4.51317Z" fill="black"/>
<path d="M38.741 0.952148H34.238V17.9721H38.741V0.952148Z" fill="black"/>
<path d="M50.979 7.91716C50.664 8.86016 50.403 9.90815 50.089 10.9012H49.984C49.669 9.90715 49.408 8.85916 49.094 7.91716L46.527 0.952148H41.71V17.9722H45.742V12.9452C45.6544 10.9117 45.4625 8.88398 45.167 6.87015H45.267L46.629 10.9552L48.723 16.5842H51.132L53.232 10.9552L54.645 6.87015H54.75C54.4538 8.88389 54.2619 10.9116 54.175 12.9452V17.9722H58.26V0.952148H53.443L50.979 7.91716Z" fill="black"/>
<path d="M65.793 11.1642H71.345V7.39415H65.793V4.72316H71.493L74.742 0.952148H61.287V17.9722H72.546V14.2021H65.79L65.793 11.1642Z" fill="black"/>
<path d="M80.039 7.2793H75.539V24.2993H86.484V20.5293H80.039V7.2793Z" fill="black"/>
<path d="M93.955 7.2793L88.77 24.2993H93.378L94.224 20.6863H98.973L99.819 24.2993H104.584L99.401 7.2793H93.955ZM95.04 17.2033L95.315 16.0253C95.735 14.4023 96.156 12.3593 96.52 10.6313H96.625C97.044 12.3313 97.463 14.4023 97.881 16.0253L98.156 17.2033H95.04Z" fill="black"/>
<path d="M117.074 15.2933V15.1883C117.737 14.8364 118.288 14.3071 118.667 13.6597C119.047 13.0124 119.238 12.2723 119.221 11.5223C119.221 8.17028 116.34 7.28027 112.78 7.28027H106.654V24.3003H113.304C116.97 24.3003 120.004 22.7823 120.004 19.2733C120.055 18.3727 119.79 17.4825 119.255 16.7561C118.72 16.0296 117.949 15.5124 117.074 15.2933ZM111.155 10.7363H112.675C114.14 10.7363 114.822 11.1563 114.822 12.2033C114.822 13.2503 114.141 13.9313 112.675 13.9313H111.155V10.7363ZM112.989 20.8443H111.155V17.2293H112.989C114.769 17.2293 115.607 17.7023 115.607 18.9583C115.607 20.2143 114.77 20.8443 112.989 20.8443Z" fill="black"/>
<path d="M131.047 14.5082L128.978 13.6962C127.432 13.0962 126.464 12.8062 126.464 11.9962C126.464 11.2362 127.145 10.8432 128.244 10.8432C129.482 10.8678 130.677 11.3006 131.644 12.0742L133.896 9.24625C132.375 7.7868 130.348 6.97109 128.24 6.96924C124.522 6.96924 121.904 9.35124 121.904 12.2582C121.91 13.3072 122.244 14.3281 122.859 15.1779C123.474 16.0277 124.339 16.6639 125.334 16.9972L127.455 17.8893C128.895 18.4643 129.755 18.7272 129.755 19.5392C129.755 20.2972 129.18 20.7392 127.817 20.7392C126.349 20.6268 124.954 20.0488 123.837 19.0892L121.27 22.1783C123.054 23.7386 125.341 24.6035 127.711 24.6142C131.953 24.6142 134.362 22.0492 134.362 19.1662C134.402 18.1325 134.099 17.1146 133.499 16.2718C132.899 15.4289 132.037 14.8087 131.047 14.5082Z" fill="black"/>
</svg>
