<svg width="48" height="48" viewBox="0 0 48 48" fill="none" xmlns="http://www.w3.org/2000/svg">
<rect width="48" height="48" rx="12" fill="black"/>
<g clip-path="url(#clip0_736_7200)">
<path d="M20.2273 33.117C19.7931 32.9184 19.455 32.5547 19.2874 32.1058C19.1198 31.6568 19.1363 31.1593 19.3333 30.7226L19.5613 30.22L22.8373 31.7167L22.6094 32.2193C22.4116 32.6557 22.0497 32.9953 21.6031 33.1636C21.1565 33.3319 20.6617 33.3151 20.2273 33.117Z" fill="white" stroke="white" stroke-width="0.25"/>
<path d="M26.7385 17.887L26.4275 18.5172C27.1843 18.8 27.8305 19.3202 28.2704 20.0007C28.7104 20.6812 28.9208 21.486 28.8706 22.2961C28.8204 23.1061 28.5121 23.8784 27.9915 24.4988C27.4708 25.1191 26.7654 25.5545 25.9795 25.7407L28.6005 26.9811C29.3938 26.4082 30.0051 25.6166 30.3605 24.7019C30.716 23.7873 30.8003 22.7888 30.6033 21.827C30.4064 20.8653 29.9367 19.9814 29.2509 19.2822C28.565 18.583 27.6924 18.0984 26.7385 17.887Z" fill="white" stroke="white" stroke-width="0.25"/>
<path d="M17.3864 24.421C17.2864 24.3738 17.1924 24.3205 17.0954 24.2622C16.2352 23.7849 15.5333 23.0643 15.0766 22.1898C14.6199 21.3153 14.4286 20.3253 14.5263 19.3425C14.6241 18.3597 15.0066 17.4274 15.6264 16.661C16.2463 15.8947 17.0762 15.3281 18.0134 15.0314L17.7614 14.5117L17.7054 14.4111C16.2566 14.6943 14.9516 15.477 14.0158 16.6242C13.0799 17.7714 12.5719 19.2111 12.5794 20.6947C12.6221 21.9336 12.9989 23.1375 13.6694 24.1779C14.3399 25.2182 15.2791 26.0559 16.3864 26.6013L32.1974 34.2189L30.3614 37.3431H25.2274C24.6254 37.3478 24.0326 37.4919 23.495 37.7642C22.9573 38.0365 22.4894 38.4297 22.1274 38.9132C21.6789 39.5031 21.1111 39.9908 20.4614 40.3441C19.8118 40.6974 19.0951 40.9083 18.3584 40.9628L18.0894 41.5167C18.7658 41.8503 19.509 42.0242 20.2624 42.0253C21.6084 42.0253 22.3274 41.8907 23.0624 40.9628C23.288 40.5876 23.6072 40.2781 23.9883 40.065C24.3694 39.8518 24.7993 39.7424 25.2354 39.7475H31.6994L35.5614 33.1765L17.3864 24.421Z" fill="white" stroke="white" stroke-width="0.25"/>
</g>
<defs>
<clipPath id="clip0_736_7200">
<rect width="23.459" height="27.8796" fill="white" transform="translate(12.2705 14.2661)"/>
</clipPath>
</defs>
</svg>
