<svg width="80" height="80" viewBox="0 0 80 80" fill="none" xmlns="http://www.w3.org/2000/svg">
<circle cx="40" cy="40" r="38.5" fill="#FAF7F4" stroke="black" stroke-width="3"/>
<g clip-path="url(#clip0_1601_5781)">
<path d="M15.55 50.95H13.05V29.05H34.75C44.25 29.05 45.75 37.65 45.75 37.65L51.15 29.05H56.75L66.95 45.65L63.75 50.95H50.25V48.35H65.35L53.95 29.05C53.95 29.05 46.45 42.15 44.75 44.75C43.15 47.35 40.05 50.95 34.85 50.95H26.75V37.95H29.35V48.35H35.25C37.85 48.35 43.45 46.15 43.45 39.85C43.45 33.55 37.45 31.65 35.55 31.65H15.55V50.95ZM16.35 50.95V41.65H25.85V44.25H18.85V50.95H16.35ZM25.95 40.55V37.95H18.95V35.15H35.05C37.45 35.15 40.05 37.05 40.05 39.95C40.05 42.85 37.45 44.75 35.65 44.75H33.05V37.95H30.45V47.35H35.55C38.85 47.35 42.55 44.55 42.55 40.05C42.55 35.65 39.15 32.55 35.05 32.55H16.35V40.55H25.95ZM42.25 50.95L53.95 31.65L63.55 47.35H50.25V44.75H58.85L53.95 36.75L45.85 51.05L42.25 50.95Z" fill="black"/>
</g>
<defs>
<clipPath id="clip0_1601_5781">
<rect width="53.9" height="21.9" fill="white" transform="translate(13.05 29.05)"/>
</clipPath>
</defs>
</svg>
