<svg width="116" height="20" viewBox="0 0 116 20" fill="none" xmlns="http://www.w3.org/2000/svg">
<path fill-rule="evenodd" clip-rule="evenodd" d="M0 20V0H12.0447L12.4134 5.46914H5.67235V8.07827H11.1641V13.5324H5.62719L5.63974 20H0ZM46.5655 19.9697L40.5444 9.59342L46.0161 0.0299479H39.9875L37.4862 4.33752L35.0301 0.0299479H28.7883L34.3703 9.66116L28.4596 19.9697L34.5183 19.9798L37.411 14.9246L40.3362 19.9697H46.5655ZM12.2554 10.0251C12.2554 4.65384 16.5203 0.301107 21.7887 0.301107C27.0522 0.301107 31.3221 4.65384 31.3221 10.0251C31.3221 15.3964 27.0572 19.7492 21.7887 19.7492C16.5203 19.7492 12.2554 15.3964 12.2554 10.0251ZM20.6757 15.1542C20.9791 15.4637 21.393 15.6402 21.8264 15.6448C22.2654 15.6457 22.6874 15.4752 23.0027 15.1698C23.318 14.8643 23.5017 14.4479 23.5148 14.0091L23.4897 6.02113C23.4833 5.57539 23.3076 5.14877 22.9982 4.82778C22.6889 4.50679 22.2691 4.31546 21.8239 4.29258C20.9307 4.29258 20.2082 5.10793 20.2082 6.02113V13.994C20.2042 14.4274 20.3723 14.8447 20.6757 15.1542Z" fill="black"/>
<path fill-rule="evenodd" clip-rule="evenodd" d="M91.6047 4.0851V8.17649H93.6126C93.8828 8.18301 94.1507 8.12571 94.3946 8.00923C94.6385 7.89275 94.8515 7.72038 95.0163 7.50613C95.3813 7.06441 95.5736 6.50529 95.5576 5.93252C95.5447 5.68337 95.4805 5.43957 95.3689 5.21643C95.2574 4.99329 95.1009 4.79563 94.9093 4.63586C94.7325 4.45429 94.5203 4.3109 94.2859 4.21455C94.0516 4.11819 93.7999 4.07092 93.5465 4.07566L91.6047 4.0851ZM91.6047 11.2356V15.7078H93.9147C94.5964 15.7236 95.2693 15.5515 95.8597 15.2105C96.135 15.0584 96.3621 14.832 96.5151 14.5571C96.6681 14.2823 96.7409 13.97 96.7252 13.6558C96.7252 12.164 95.781 11.3457 93.9147 11.2356H91.6047ZM115.209 0.799395V4.89079C114.041 4.26134 113.028 3.94662 112.162 3.94662C111.736 3.96706 111.31 4.01013 110.888 4.07566C109.422 4.26393 108.069 4.95996 107.064 6.04267C106.07 7.09883 105.526 8.50117 105.55 9.95152C105.52 11.3304 106.021 12.668 106.951 13.6873C107.878 14.7426 109.132 15.4572 110.513 15.7172C110.996 15.8173 111.49 15.8616 111.983 15.8494C113.123 15.795 114.232 15.4576 115.209 14.8675V19.3523C113.708 19.8921 112.108 20.0983 110.52 19.9565C108.748 19.8027 107.035 19.2485 105.509 18.3357C104.013 17.456 102.775 16.1966 101.921 14.6849C101.024 13.129 100.561 11.3605 100.581 9.56441C100.632 7.8688 101.14 6.21847 102.05 4.78693C102.949 3.3692 104.197 2.20715 105.676 1.4131C107.2 0.563776 108.902 0.0820562 110.645 0.00629339C112.204 -0.0292518 113.754 0.240168 115.209 0.799395ZM74.5625 19.3523H70.5655V0L81.606 9.96097V0.799395H85.6973V19.9817L74.5499 9.59589V19.3523H74.5625ZM87.5479 19.3523V0.783658H95.5419C96.5902 0.884744 97.5696 1.35158 98.3083 2.10235C99.0436 2.86038 99.4805 3.85836 99.5388 4.91281C99.5388 6.83577 98.8244 8.23943 97.3767 9.14583C99.3878 9.98929 100.467 11.522 100.574 13.7062C100.607 15.1326 100.101 16.5191 99.158 17.5898C98.7045 18.1114 98.1506 18.5363 97.5293 18.8391C96.908 19.1419 96.2321 19.3164 95.5419 19.3523H87.5479Z" fill="black"/>
</svg>
