<svg width="47" height="20" viewBox="0 0 47 20" fill="none" xmlns="http://www.w3.org/2000/svg">
<path fill-rule="evenodd" clip-rule="evenodd" d="M0 20V0H12.0447L12.4134 5.46914H5.67235V8.07827H11.1641V13.5324H5.62719L5.63974 20H0ZM46.5655 19.9697L40.5444 9.59342L46.0161 0.0299479H39.9875L37.4862 4.33752L35.0301 0.0299479H28.7883L34.3703 9.66116L28.4596 19.9697L34.5183 19.9798L37.411 14.9246L40.3362 19.9697H46.5655ZM12.2554 10.0251C12.2554 4.65384 16.5203 0.301107 21.7887 0.301107C27.0522 0.301107 31.3221 4.65384 31.3221 10.0251C31.3221 15.3964 27.0572 19.7492 21.7887 19.7492C16.5203 19.7492 12.2554 15.3964 12.2554 10.0251ZM20.6757 15.1542C20.9791 15.4637 21.393 15.6402 21.8264 15.6448C22.2654 15.6457 22.6874 15.4752 23.0027 15.1698C23.318 14.8643 23.5017 14.4479 23.5148 14.0091L23.4897 6.02113C23.4833 5.57539 23.3076 5.14877 22.9982 4.82778C22.6889 4.50679 22.2691 4.31546 21.8239 4.29258C20.9307 4.29258 20.2082 5.10793 20.2082 6.02113V13.994C20.2042 14.4274 20.3723 14.8447 20.6757 15.1542Z" fill="black"/>
</svg>
