<svg width="60" height="60" viewBox="0 0 60 60" fill="none" xmlns="http://www.w3.org/2000/svg">
<circle cx="30" cy="30" r="29" fill="#E9EBF3" stroke="black" stroke-width="2"/>
<path d="M16.5176 35V26.4336H17.5137V35H16.5176ZM23.5371 27.2012C22.5957 27.2012 21.8516 27.5156 21.3047 28.1445C20.7617 28.7695 20.4902 29.627 20.4902 30.7168C20.4902 31.8379 20.752 32.7051 21.2754 33.3184C21.8027 33.9277 22.5527 34.2324 23.5254 34.2324C24.123 34.2324 24.8047 34.125 25.5703 33.9102V34.7832C24.9766 35.0059 24.2441 35.1172 23.373 35.1172C22.1113 35.1172 21.1367 34.7344 20.4492 33.9688C19.7656 33.2031 19.4238 32.1152 19.4238 30.7051C19.4238 29.8223 19.5879 29.0488 19.916 28.3848C20.248 27.7207 20.7246 27.209 21.3457 26.8496C21.9707 26.4902 22.7051 26.3105 23.5488 26.3105C24.4473 26.3105 25.2324 26.4746 25.9043 26.8027L25.4824 27.6582C24.834 27.3535 24.1855 27.2012 23.5371 27.2012ZM34.875 30.7051C34.875 32.0762 34.5273 33.1543 33.832 33.9395C33.1406 34.7246 32.1777 35.1172 30.9434 35.1172C29.6816 35.1172 28.707 34.7324 28.0195 33.9629C27.3359 33.1895 26.9941 32.0996 26.9941 30.6934C26.9941 29.2988 27.3379 28.2188 28.0254 27.4531C28.7129 26.6836 29.6895 26.2988 30.9551 26.2988C32.1855 26.2988 33.1465 26.6895 33.8379 27.4707C34.5293 28.252 34.875 29.3301 34.875 30.7051ZM28.0488 30.7051C28.0488 31.8652 28.2949 32.7461 28.7871 33.3477C29.2832 33.9453 30.002 34.2441 30.9434 34.2441C31.8926 34.2441 32.6094 33.9453 33.0938 33.3477C33.5781 32.75 33.8203 31.8691 33.8203 30.7051C33.8203 29.5527 33.5781 28.6797 33.0938 28.0859C32.6133 27.4883 31.9004 27.1895 30.9551 27.1895C30.0059 27.1895 29.2832 27.4902 28.7871 28.0918C28.2949 28.6895 28.0488 29.5605 28.0488 30.7051ZM43.4824 35H42.3457L37.6641 27.8105H37.6172C37.6797 28.6543 37.7109 29.4277 37.7109 30.1309V35H36.791V26.4336H37.916L42.5859 33.5938H42.6328C42.625 33.4883 42.6074 33.1504 42.5801 32.5801C42.5527 32.0059 42.543 31.5957 42.5508 31.3496V26.4336H43.4824V35Z" fill="black"/>
</svg>
