<svg width="202" height="36" viewBox="0 0 202 36" fill="none" xmlns="http://www.w3.org/2000/svg">
<g clip-path="url(#clip0_1807_210)">
<path d="M13.95 0H0L4.61301 5.336V25.505H11.362V17.42H14.109C19.445 17.42 24.309 14.714 24.309 8.47601C24.309 2.04001 19.522 0 13.95 0ZM13.793 12.087H11.361V5.336H13.637C16.226 5.336 17.718 6.20001 17.718 8.47601C17.718 10.752 16.461 12.087 13.793 12.087Z" fill="black"/>
<path d="M47.0801 8.24001C47.0801 1.88301 42.3721 0 36.8801 0H27.2261V25.5H33.9751V16.956H36.5681L40.9591 25.509H48.4961L42.9371 15.575C44.2595 14.8798 45.3535 13.8182 46.0882 12.5173C46.823 11.2165 47.1673 9.73146 47.0801 8.24001ZM33.9741 5.34001H36.4061C39.0741 5.34001 40.4871 6.04601 40.4871 8.24001C40.4871 10.434 39.0741 11.614 36.4061 11.614H33.9741V5.34001Z" fill="black"/>
<path d="M58.0551 0H51.3071V25.506H58.0551V0Z" fill="black"/>
<path d="M76.393 10.438C75.921 11.851 75.529 13.421 75.059 14.91H74.9019C74.4299 13.421 74.0379 11.851 73.5679 10.438L69.7209 0H62.502V25.5H68.544V17.966C68.4124 14.9199 68.1247 11.8826 67.682 8.86601H67.837L69.877 14.987L73.015 23.423H76.625L79.765 14.987L81.882 8.86601H82.039C81.5951 11.8825 81.3074 14.9199 81.177 17.966V25.5H87.298V0H80.0789L76.393 10.438Z" fill="black"/>
<path d="M98.592 15.3029H106.912V9.65588H98.592V5.65588H107.134L112.003 0.00488281H91.842V25.5059H108.714V19.8559H98.592V15.3029Z" fill="black"/>
<path d="M119.942 9.48193H113.194V34.9879H129.594V29.3389H119.94L119.942 9.48193Z" fill="black"/>
<path d="M140.797 9.48193L133.027 34.9819H139.933L141.201 29.5669H148.318L149.586 34.9819H156.726L148.958 9.48193H140.797ZM142.422 24.3539L142.835 22.5879C143.465 20.1559 144.095 17.0949 144.641 14.5049H144.798C145.426 17.0559 146.053 20.1559 146.681 22.5879L147.094 24.3539H142.422Z" fill="black"/>
<path d="M175.441 21.4909V21.3339C177.403 20.5489 178.658 18.0339 178.658 15.8409C178.658 10.8179 174.341 9.48389 169.005 9.48389H159.825V34.9839H169.79C175.283 34.9839 179.836 32.7099 179.836 27.4499C179.911 26.1005 179.513 24.7674 178.71 23.6797C177.908 22.5921 176.752 21.8181 175.441 21.4909ZM166.571 14.6619H168.85C171.05 14.6619 172.067 15.2919 172.067 16.8619C172.067 18.4319 171.046 19.4509 168.85 19.4509H166.57L166.571 14.6619ZM169.32 29.8099H166.57V24.3929H169.319C171.987 24.3929 173.242 25.1009 173.242 26.9839C173.242 28.8669 171.988 29.8099 169.32 29.8099Z" fill="black"/>
<path d="M196.381 20.3149L193.281 19.0979C190.964 18.1979 189.513 17.7639 189.513 16.5469C189.513 15.4089 190.534 14.8189 192.181 14.8189C194.038 14.8548 195.831 15.5034 197.281 16.6639L200.655 12.4259C198.375 10.2385 195.339 9.01581 192.179 9.01294C186.607 9.01294 182.679 12.5829 182.679 16.9379C182.688 18.5097 183.189 20.0392 184.11 21.3124C185.032 22.5855 186.329 23.5385 187.819 24.0379L190.998 25.3739C193.155 26.2359 194.451 26.6289 194.451 27.8459C194.451 28.9819 193.589 29.6459 191.551 29.6459C189.351 29.4777 187.261 28.6117 185.587 27.1739L181.74 31.8039C184.414 34.1426 187.841 35.4389 191.393 35.4549C197.75 35.4549 201.361 31.6109 201.361 27.2919C201.363 23.7679 199.559 21.5699 196.381 20.3149Z" fill="black"/>
</g>
<defs>
<clipPath id="clip0_1807_210">
<rect width="201.363" height="35.461" fill="white"/>
</clipPath>
</defs>
</svg>
