<svg width="32" height="32" viewBox="0 0 32 32" fill="none" xmlns="http://www.w3.org/2000/svg">
<g clip-path="url(#clip0_403_7533)">
<path d="M21.6495 19.5184C23.0052 17.9241 23.7756 15.9146 23.8331 13.8227C23.8906 11.7308 23.2317 9.68195 21.9657 8.01562C20.6997 6.34929 18.9024 5.16543 16.8716 4.66012C14.8408 4.15481 12.6983 4.35839 10.799 5.23712C8.89971 6.11585 7.35758 7.61699 6.42803 9.49194C5.49848 11.3669 5.23729 13.5031 5.68773 15.5468C6.13818 17.5904 7.2732 19.419 8.90484 20.7294C10.5365 22.0398 12.5668 22.7536 14.6595 22.7524C16.078 22.7509 17.477 22.4221 18.7475 21.7914L25.2605 27.5494L26.5255 26.5114L21.6495 19.5184ZM14.6595 7.11843C15.5209 7.09699 16.3778 7.24812 17.1798 7.56292C17.9818 7.87773 18.7128 8.34986 19.3296 8.95147C19.9464 9.55309 20.4365 10.272 20.7712 11.066C21.1058 11.8599 21.2782 12.7128 21.2782 13.5744C21.2782 14.436 21.1058 15.2889 20.7712 16.0829C20.4365 16.8768 19.9464 17.5958 19.3296 18.1974C18.7128 18.799 17.9818 19.2711 17.1798 19.5859C16.3778 19.9007 15.5209 20.0519 14.6595 20.0304C11.1015 20.0304 8.13152 17.7684 8.13152 13.6064C8.13152 9.44444 10.9495 7.11343 14.6595 7.11343V7.11843Z" fill="black"/>
</g>
<defs>
<clipPath id="clip0_403_7533">
<rect width="21.053" height="23.097" fill="white" transform="translate(5.47351 4.45142)"/>
</clipPath>
</defs>
</svg>
