<svg width="135" height="24" viewBox="0 0 135 24" fill="none" xmlns="http://www.w3.org/2000/svg">
<path d="M9.30901 0.000976562H0L3.078 3.56198V17.021H7.578V11.626H9.41101C12.972 11.626 16.219 9.81998 16.219 5.65698C16.222 1.36298 13.028 0.000976562 9.30901 0.000976562ZM9.20401 8.06598H7.58101V3.56598H9.10001C10.828 3.56598 11.823 4.14198 11.823 5.66599C11.823 7.18999 10.985 8.06699 9.20401 8.06699V8.06598Z" fill="white"/>
<path d="M31.417 5.5C31.417 1.258 28.275 0 24.609 0H18.168V17.02H22.668V11.313H24.399L27.329 17.02H32.356L28.646 10.391C29.529 9.92816 30.2599 9.22073 30.7514 8.35333C31.2428 7.48593 31.4739 6.49531 31.417 5.5ZM22.671 3.562H24.294C26.074 3.562 27.017 4.033 27.017 5.5C27.017 6.967 26.074 7.752 24.294 7.752H22.671V3.562Z" fill="white"/>
<path d="M38.741 0.000976562H34.238V17.021H38.741V0.000976562Z" fill="white"/>
<path d="M50.979 6.96599C50.664 7.90899 50.403 8.95698 50.089 9.94998H49.984C49.669 8.95598 49.408 7.90799 49.094 6.96599L46.527 0.000976562H41.71V17.021H45.742V11.994C45.6544 9.96049 45.4625 7.93281 45.167 5.91898H45.267L46.629 10.004L48.723 15.633H51.132L53.232 10.004L54.645 5.91898H54.75C54.4538 7.93272 54.2619 9.96044 54.175 11.994V17.021H58.26V0.000976562H53.443L50.979 6.96599Z" fill="white"/>
<path d="M65.793 10.213H71.345V6.44298H65.793V3.77199H71.493L74.742 0.000976562H61.287V17.021H72.546V13.251H65.79L65.793 10.213Z" fill="white"/>
<path d="M80.039 6.32812H75.539V23.3481H86.484V19.5781H80.039V6.32812Z" fill="white"/>
<path d="M93.955 6.32812L88.77 23.3481H93.378L94.224 19.7351H98.973L99.819 23.3481H104.584L99.401 6.32812H93.955ZM95.04 16.2521L95.315 15.0741C95.735 13.4511 96.156 11.4081 96.52 9.68011H96.625C97.044 11.3801 97.463 13.4511 97.881 15.0741L98.156 16.2521H95.04Z" fill="white"/>
<path d="M117.074 14.3421V14.2371C117.737 13.8852 118.288 13.356 118.667 12.7086C119.047 12.0612 119.238 11.3211 119.221 10.5711C119.221 7.21911 116.34 6.3291 112.78 6.3291H106.654V23.3491H113.304C116.97 23.3491 120.004 21.8311 120.004 18.3221C120.055 17.4215 119.79 16.5313 119.255 15.8049C118.72 15.0785 117.949 14.5612 117.074 14.3421ZM111.155 9.78511H112.675C114.14 9.78511 114.822 10.2051 114.822 11.2521C114.822 12.2991 114.141 12.9801 112.675 12.9801H111.155V9.78511ZM112.989 19.8931H111.155V16.2781H112.989C114.769 16.2781 115.607 16.7511 115.607 18.0071C115.607 19.2631 114.77 19.8931 112.989 19.8931Z" fill="white"/>
<path d="M131.047 13.5571L128.978 12.7451C127.432 12.1451 126.464 11.8551 126.464 11.0451C126.464 10.2851 127.145 9.89207 128.244 9.89207C129.482 9.91665 130.677 10.3494 131.644 11.1231L133.896 8.29507C132.375 6.83563 130.348 6.01992 128.24 6.01807C124.522 6.01807 121.904 8.40007 121.904 11.3071C121.91 12.3561 122.244 13.377 122.859 14.2268C123.474 15.0766 124.339 15.7127 125.334 16.0461L127.455 16.9381C128.895 17.5131 129.755 17.7761 129.755 18.5881C129.755 19.3461 129.18 19.7881 127.817 19.7881C126.349 19.6757 124.954 19.0976 123.837 18.1381L121.27 21.2271C123.054 22.7874 125.341 23.6523 127.711 23.6631C131.953 23.6631 134.362 21.0981 134.362 18.2151C134.402 17.1814 134.099 16.1634 133.499 15.3206C132.899 14.4777 132.037 13.8575 131.047 13.5571Z" fill="white"/>
</svg>
