<svg width="46" height="20" viewBox="0 0 46 20" fill="none" xmlns="http://www.w3.org/2000/svg">
<path fill-rule="evenodd" clip-rule="evenodd" d="M21.6047 4.0851V8.17649H23.6126C23.8828 8.18301 24.1507 8.12571 24.3946 8.00923C24.6385 7.89275 24.8515 7.72038 25.0163 7.50613C25.3813 7.06441 25.5736 6.50529 25.5576 5.93252C25.5447 5.68337 25.4805 5.43957 25.3689 5.21643C25.2574 4.99329 25.1009 4.79563 24.9093 4.63586C24.7325 4.45429 24.5203 4.3109 24.2859 4.21455C24.0516 4.11819 23.7999 4.07092 23.5465 4.07566L21.6047 4.0851ZM21.6047 11.2356V15.7078H23.9147C24.5964 15.7236 25.2693 15.5515 25.8597 15.2105C26.135 15.0584 26.3621 14.832 26.5151 14.5571C26.6681 14.2823 26.7409 13.97 26.7252 13.6558C26.7252 12.164 25.781 11.3457 23.9147 11.2356H21.6047ZM45.2089 0.799395V4.89079C44.0412 4.26134 43.0278 3.94662 42.1624 3.94662C41.7355 3.96706 41.31 4.01013 40.8877 4.07566C39.4223 4.26393 38.0692 4.95996 37.0638 6.04267C36.0696 7.09883 35.5265 8.50117 35.55 9.95152C35.52 11.3304 36.0215 12.668 36.9505 13.6873C37.8782 14.7426 39.1324 15.4572 40.5132 15.7172C40.9965 15.8173 41.4896 15.8616 41.983 15.8494C43.1231 15.795 44.2318 15.4576 45.2089 14.8675V19.3523C43.7082 19.8921 42.108 20.0983 40.5195 19.9565C38.7482 19.8027 37.035 19.2485 35.5091 18.3357C34.0126 17.456 32.7749 16.1966 31.9213 14.6849C31.0238 13.129 30.5608 11.3605 30.5806 9.56441C30.6324 7.8688 31.1401 6.21847 32.0503 4.78693C32.9486 3.3692 34.1973 2.20715 35.6759 1.4131C37.2003 0.563776 38.902 0.0820562 40.6454 0.00629339C42.2037 -0.0292518 43.7539 0.240168 45.2089 0.799395ZM4.56247 19.3523H0.565491V0L11.606 9.96097V0.799395H15.6973V19.9817L4.54988 9.59589V19.3523H4.56247ZM17.5479 19.3523V0.783658H25.5419C26.5902 0.884744 27.5696 1.35158 28.3083 2.10235C29.0436 2.86038 29.4805 3.85836 29.5388 4.91281C29.5388 6.83577 28.8244 8.23943 27.3767 9.14583C29.3878 9.98929 30.4673 11.522 30.5743 13.7062C30.6067 15.1326 30.1011 16.5191 29.158 17.5898C28.7045 18.1114 28.1506 18.5363 27.5293 18.8391C26.908 19.1419 26.2321 19.3164 25.5419 19.3523H17.5479Z" fill="black"/>
</svg>
