<svg width="80" height="80" viewBox="0 0 80 80" fill="none" xmlns="http://www.w3.org/2000/svg">
<circle cx="40" cy="40" r="38.5" fill="#FAF7F4" stroke="black" stroke-width="3"/>
<line x1="18.6367" y1="62.7067" x2="13.6367" y2="67.7067" stroke="black" stroke-width="3"/>
<line x1="67.8505" y1="13.493" x2="47.8505" y2="33.493" stroke="black" stroke-width="3"/>
<g clip-path="url(#clip0_735_7261)">
<path d="M35.6911 20.25V35.75L21.6642 60.25H39.1749H40.8251H58.3358L44.3089 35.75V20.25" stroke="black" stroke-width="3" stroke-miterlimit="10"/>
<path d="M50.1763 22.25C46.7842 22.65 43.4838 22.75 40.0917 22.75C36.7912 22.75 33.3991 22.65 30.0986 22.25V20.25C33.4908 19.85 36.7912 19.75 40.0917 19.75C43.3921 19.75 46.7842 19.85 50.0847 20.25V22.25H50.1763Z" fill="black"/>
<path d="M30.7404 44.3499C30.7404 44.3499 34.3158 48.4499 38.6248 47.1499C42.9337 45.8499 44.4922 41.9499 48.2511 42.3499" stroke="black" stroke-width="3" stroke-miterlimit="10"/>
<path d="M46.4177 52.6501C47.3797 52.6501 48.1596 51.7994 48.1596 50.7501C48.1596 49.7008 47.3797 48.8501 46.4177 48.8501C45.4557 48.8501 44.6758 49.7008 44.6758 50.7501C44.6758 51.7994 45.4557 52.6501 46.4177 52.6501Z" fill="black"/>
<path d="M33.1241 55.9499C34.0861 55.9499 34.866 55.0992 34.866 54.0499C34.866 53.0006 34.0861 52.1499 33.1241 52.1499C32.1621 52.1499 31.3822 53.0006 31.3822 54.0499C31.3822 55.0992 32.1621 55.9499 33.1241 55.9499Z" fill="black"/>
</g>
<defs>
<clipPath id="clip0_735_7261">
<rect width="45.4" height="42" fill="white" transform="translate(17.3 19)"/>
</clipPath>
</defs>
</svg>
