<svg width="80" height="80" viewBox="0 0 80 80" fill="none" xmlns="http://www.w3.org/2000/svg">
<circle cx="40" cy="40" r="38.5" fill="#FAF7F4" stroke="black" stroke-width="3"/>
<line x1="30.7137" y1="51.2533" x2="13.9918" y2="67.9752" stroke="black" stroke-width="3"/>
<line x1="68.2072" y1="13.7601" x2="56.6451" y2="25.3546" stroke="black" stroke-width="3"/>
<g clip-path="url(#clip0_735_7200)">
<path d="M26.5604 17.9731C26.5604 17.9731 36.8789 18.0868 39.4012 23.7686C41.9235 29.4504 37.6814 31.9504 37.6814 31.9504C37.6814 31.9504 34.3566 33.8822 30.3439 31.3822C27.1337 29.4504 25.5286 25.8141 25.7579 22.0641C25.8725 20.9277 26.1018 19.4504 26.5604 17.9731Z" stroke="black" stroke-width="3" stroke-miterlimit="10"/>
<path d="M32.9807 23.655C34.9298 25.9278 36.4202 28.3141 37.796 30.9278C39.1718 33.4278 40.2037 36.155 41.1209 38.8823C41.3502 39.5641 41.5795 40.2459 41.6941 41.0414C41.8088 41.8368 41.9234 42.5187 42.0381 43.3141C42.1527 44.7914 42.2674 46.155 42.2674 47.6323C42.2674 50.4732 42.2674 53.3141 42.1527 56.155L38.7132 55.9278C38.9425 53.2005 39.1718 50.4732 39.1718 47.6323C39.1718 46.2687 39.1718 44.905 39.0572 43.5414C39.0572 42.8596 38.9425 42.1778 38.8279 41.6096C38.7132 41.0414 38.4839 40.3596 38.3693 39.6778C37.6814 37.0641 36.6495 34.4505 35.503 32.0641C34.3565 29.6778 32.8661 27.1778 31.261 25.1323L32.9807 23.655Z" fill="black"/>
<path d="M58.2038 30.0185C58.2038 30.0185 53.2739 26.3822 48.2293 28.5412C43.1847 30.7003 44.3312 35.9276 44.3312 35.9276C44.3312 35.9276 46.9681 39.1094 52.242 37.2912C57.5159 35.4731 58.2038 30.0185 58.2038 30.0185Z" stroke="black" stroke-width="3" stroke-miterlimit="10"/>
<path d="M50.4075 33.9958C49.4904 34.3367 48.4585 34.9049 47.5413 35.3594C46.6241 35.9276 45.8216 36.4958 45.019 37.1776C44.2165 37.8594 43.5286 38.6549 43.07 39.4503C42.4967 40.2458 42.1528 41.1549 41.9235 41.9503L38.5986 41.0412C39.0572 39.7912 39.7451 38.6549 40.5477 37.6321C41.3502 36.6094 42.2674 35.8139 43.2993 35.0185C44.3311 34.3367 45.363 33.6549 46.3948 33.2003C47.5413 32.6321 48.5732 32.2912 49.7197 31.8367L50.4075 33.9958Z" fill="black"/>
<path d="M45.1337 42.064V60.814C45.1337 62.9731 43.07 64.6776 40.4331 64.6776C37.7961 64.6776 35.7324 62.9731 35.7324 60.814V42.064" stroke="black" stroke-width="3" stroke-miterlimit="10"/>
<path d="M50.0636 42.9731C46.8534 43.4276 43.6433 43.4276 40.4331 43.4276C37.2229 43.4276 34.0127 43.2004 30.8025 42.7458V40.4731C34.0127 40.0186 37.2229 40.0186 40.4331 40.0186C43.6433 40.0186 46.8534 40.2458 50.0636 40.7004V42.9731Z" fill="black"/>
</g>
<defs>
<clipPath id="clip0_735_7200">
<rect width="36" height="50" fill="white" transform="translate(24.0381 16.2686)"/>
</clipPath>
</defs>
</svg>
