<svg width="80" height="80" viewBox="0 0 80 80" fill="none" xmlns="http://www.w3.org/2000/svg">
<circle cx="40" cy="40" r="38.5" fill="#FAF7F4" stroke="black" stroke-width="3"/>
<g clip-path="url(#clip0_1601_5741)">
<path d="M37.175 62.8037C37.3692 61.3317 37.4662 59.9579 37.6603 58.486L38.0485 56.3271L38.2426 55.2476L38.5338 54.1682L39.1161 52.1075C39.3102 51.4205 39.6014 50.7336 39.7955 50.0467L40.1837 49.0654L40.5719 48.0841C40.8631 47.3972 41.1543 46.8084 41.4454 46.1215C42.7071 43.5701 44.26 41.1168 46.104 38.8598C47.948 36.6028 49.9861 34.6402 52.4125 33.0701L53.383 34.7383C51.3449 36.2103 49.3068 38.1729 47.7539 40.2336C46.104 42.3925 44.7452 44.6495 43.5806 47.1028C43.2894 47.6916 43.0953 48.3785 42.8042 48.9673L42.416 49.9486L42.1248 50.9299C41.9307 51.6168 41.7366 52.2056 41.5425 52.8925L41.0572 54.8551L40.8631 55.8364L40.669 56.8177L40.3778 58.7803C40.1837 60.1542 40.1837 61.4299 40.0867 62.8037H37.175Z" fill="black"/>
<path d="M43.0953 36.1122C42.9012 36.7991 42.8042 37.5842 42.7071 38.2711C42.6101 38.958 42.6101 39.743 42.7071 40.43C42.8042 41.1169 42.9012 41.7057 43.1924 42.1963C43.4835 42.687 43.7747 42.9814 44.26 43.1776L42.9983 45.729C42.0277 45.1402 41.2513 44.2571 40.8631 43.2757C40.4749 42.2944 40.3778 41.3131 40.3778 40.43C40.3778 39.5468 40.4749 38.6636 40.669 37.7804C40.8631 36.8972 41.0572 36.1122 41.3484 35.3271L43.0953 36.1122Z" fill="black"/>
<path d="M42.513 46.7102C42.9983 47.0046 43.7747 47.2008 44.4541 47.3971C45.1334 47.5934 45.8128 47.5934 46.4922 47.6915C47.1716 47.6915 47.851 47.5934 48.5303 47.3971C49.2097 47.2008 49.792 46.9064 50.3743 46.5139L51.636 48.084C50.9567 48.6728 50.1802 49.1634 49.3068 49.556C48.4333 49.8504 47.5598 50.1448 46.6863 50.2429C45.8128 50.341 44.9393 50.341 44.0659 50.2429C43.1924 50.1448 42.4159 49.9485 41.4454 49.6541L42.513 46.7102Z" fill="black"/>
<path d="M47.948 37.9766C47.948 38.0747 48.2392 38.1728 48.4333 38.271C48.6274 38.3691 48.8215 38.4672 49.0156 38.5653C49.4038 38.6635 49.8891 38.7616 50.3744 38.8597C50.8596 38.8597 51.3449 38.8597 51.7331 38.6635C52.2184 38.5653 52.7036 38.3691 53.0919 38.0747L54.1594 39.7429C53.6742 40.1354 53.0919 40.528 52.4125 40.7242C51.8302 41.0186 51.1508 41.2149 50.3744 41.2149C49.695 41.313 48.9185 41.313 48.2392 41.1168C47.851 41.0186 47.5598 40.9205 47.1716 40.8224C46.7834 40.7242 46.4922 40.6261 46.104 40.3317L47.948 37.9766Z" fill="black"/>
<path d="M40.1837 52.5981C39.8925 54.1682 38.7279 56.8177 37.7574 57.2103C34.2634 58.5841 26.208 59.9579 21.1612 54.6589C16.2114 49.3598 16.7938 42.1962 12.2322 36.2103C12.2322 36.2103 18.4437 33.6589 25.5286 35.0327C29.896 35.8177 33.0017 36.9953 35.0399 38.4673" stroke="black" stroke-width="3" stroke-miterlimit="10"/>
<path d="M24.1698 43.3738C26.1109 44.3551 27.8579 45.4345 29.6049 46.7102C31.3518 47.9859 33.0017 49.3598 34.4575 50.8317C35.9133 52.4018 37.3692 54.1682 38.3397 56.2289C39.4073 58.2897 39.8926 60.6448 39.7955 62.9999L36.8839 62.7056C37.078 60.9392 36.7868 59.0747 35.9133 57.3084C35.1369 55.542 33.9723 53.9719 32.7106 52.4999C31.3518 51.028 29.896 49.6542 28.2461 48.3785C26.6932 47.1028 24.9463 46.0233 23.1993 45.042L24.1698 43.3738Z" fill="black"/>
<path d="M28.1491 40.6262C28.8284 41.1169 29.2166 41.5094 29.7019 42.0982C30.0901 42.687 30.4783 43.2758 30.5754 43.9627C30.7695 44.6496 30.8666 45.3365 30.7695 46.1215C30.7695 46.8085 30.5754 47.4954 30.3813 48.1823L27.6638 47.201C27.8579 46.8085 28.052 46.3178 28.052 45.9253C28.1491 45.5328 28.1491 45.0421 28.1491 44.6496C28.1491 44.2571 27.9549 43.7664 27.7608 43.3739C27.5667 42.9814 27.2756 42.5888 26.9844 42.2944L28.1491 40.6262Z" fill="black"/>
<path d="M34.7487 52.5981C34.6517 52.8925 34.5546 52.9906 34.4575 53.1869C34.3605 53.285 34.2634 53.4813 34.1664 53.5794C33.9723 53.7757 33.6811 53.9719 33.39 54.07C32.9047 54.3644 32.3224 54.4626 31.8371 54.4626C30.8666 54.5607 29.9931 54.3644 29.2166 54.1682C27.6638 53.6775 26.305 52.8925 25.0433 52.1074L26.0139 50.4392C26.5962 50.7336 27.2756 51.028 27.8579 51.2243C28.5373 51.4205 29.1196 51.6168 29.7019 51.7149C30.2842 51.813 30.8666 51.813 31.3518 51.7149C31.5459 51.6168 31.74 51.6168 31.8371 51.5186L31.9342 51.4205C31.9342 51.4205 31.9342 51.3224 31.9342 51.5186L34.7487 52.5981Z" fill="black"/>
<path d="M63.9619 22.6682C63.9619 22.6682 50.5685 23.6495 44.9393 26.2991C40.5719 28.2617 35.9133 31.8925 34.9428 40.4299C34.5546 43.9626 35.7192 46.9065 37.175 49.0654C39.6014 52.5981 43.6776 54.4626 47.948 54.0701C53.1889 53.5794 60.9532 51.1262 61.7296 40.8224C63.1854 24.4346 63.3795 24.4346 63.9619 22.6682Z" stroke="black" stroke-width="3" stroke-miterlimit="10"/>
</g>
<defs>
<clipPath id="clip0_1601_5741">
<rect width="56" height="42" fill="white" transform="translate(10 21)"/>
</clipPath>
</defs>
</svg>
