<svg width="80" height="80" viewBox="0 0 80 80" fill="none" xmlns="http://www.w3.org/2000/svg">
<circle cx="40" cy="40" r="38.5" fill="#FAF7F4" stroke="black" stroke-width="3"/>
<g clip-path="url(#clip0_1601_5730)">
<path d="M39.95 61C45.3072 61 49.65 51.598 49.65 40C49.65 28.402 45.3072 19 39.95 19C34.5929 19 30.25 28.402 30.25 40C30.25 51.598 34.5929 61 39.95 61Z" stroke="black" stroke-width="3" stroke-miterlimit="10"/>
<path d="M44.8036 48.4149C54.8475 42.6159 60.8182 34.154 58.1396 29.5147C55.461 24.8754 45.1475 25.8155 35.1036 31.6145C25.0598 37.4135 19.089 45.8754 21.7676 50.5147C24.4462 55.154 34.7598 54.2139 44.8036 48.4149Z" stroke="black" stroke-width="3" stroke-miterlimit="10"/>
<path d="M58.1506 50.5268C60.8292 45.8875 54.8585 37.4256 44.8146 31.6266C34.7708 25.8276 24.4572 24.8875 21.7786 29.5268C19.1 34.1661 25.0708 42.628 35.1146 48.427C45.1585 54.226 55.472 55.1661 58.1506 50.5268Z" stroke="black" stroke-width="3" stroke-miterlimit="10"/>
<path d="M39.95 43.5C41.883 43.5 43.45 41.933 43.45 40C43.45 38.067 41.883 36.5 39.95 36.5C38.017 36.5 36.45 38.067 36.45 40C36.45 41.933 38.017 43.5 39.95 43.5Z" stroke="black" stroke-width="3" stroke-miterlimit="10"/>
</g>
<defs>
<clipPath id="clip0_1601_5730">
<rect width="40.7" height="45" fill="white" transform="translate(19.65 17.5)"/>
</clipPath>
</defs>
</svg>
