<svg width="149" height="20" viewBox="0 0 149 20" fill="none" xmlns="http://www.w3.org/2000/svg">
<path fill-rule="evenodd" clip-rule="evenodd" d="M21.1027 13.553L18.4523 17.2274C19.657 18.5526 22.3677 20.0585 25.9216 19.9982C30.7404 19.9982 33.3908 17.2274 33.3908 13.553C33.3908 9.99912 30.9814 8.55347 27.8491 7.5897C27.6498 7.52072 27.4525 7.45565 27.2599 7.39212C25.9385 6.95632 24.8373 6.59313 24.8373 5.54168C24.8373 4.81886 25.4397 4.2165 26.8853 4.2165C28.5719 4.2165 29.8971 4.99956 30.6802 5.9031L33.1498 2.22872C31.7042 0.903536 29.5357 0 26.5841 0C22.3676 0 19.3559 2.46966 19.3559 6.0838C19.3559 9.39677 21.8255 10.8424 24.5964 11.6857C26.7046 12.2881 27.9093 12.7097 27.9093 14.0349C27.9093 15.1794 27.066 15.7818 25.6204 15.7818C23.7531 15.7818 22.0665 14.7577 21.1027 13.553ZM0.0202026 0.421875V12.71C0.0202026 17.4083 2.91151 20.0587 8.51343 19.9985C13.9949 19.9985 17.0067 17.4083 17.0067 12.6497V0.421875H11.5252V11.0836C11.5252 13.1918 11.2843 15.2399 8.51343 15.2399C5.74259 15.2399 5.50165 13.1918 5.50165 11.0836V0.421875H0.0202026ZM40.7395 0.421875H46.7631L53.9311 19.6371H48.2087L47.3052 16.8662H40.0769L39.1734 19.6371H33.5715C33.6317 19.6371 40.7395 0.421875 40.7395 0.421875ZM45.9198 12.5292L44.4139 7.8911C44.1127 6.98756 43.8718 5.84309 43.7513 4.99979H43.5706C43.4501 5.84309 43.2092 6.98756 42.908 7.8911L41.4021 12.5292H45.9198ZM57.1236 4.87931H61.8823V19.6371H67.3637V4.87931H72.1223V0.421875H57.1236V4.87931ZM72.4837 10.0593C72.4837 5.30073 75.8569 0.0602214 83.025 0.0602214C90.193 0.0602214 93.5662 5.36096 93.5662 10.0593C93.5662 14.7577 90.193 19.9982 83.025 19.9982C75.8569 20.0585 72.4837 14.818 72.4837 10.0593ZM87.9643 10.0593C87.9643 6.62591 85.7356 4.81884 83.025 4.81884C80.3746 4.81884 78.1459 6.62591 78.1459 10.0593C78.1459 13.4928 80.3746 15.2396 83.025 15.2396C85.6754 15.2396 87.9643 13.4928 87.9643 10.0593ZM102.662 0.421875H95.5541V19.6973H102.662C109.348 19.6973 113.324 15.9627 113.324 10.0596C113.324 4.03602 109.469 0.421875 102.662 0.421875ZM102.3 15.2399H101.096V4.87932H102.3C105.854 4.87932 107.722 6.56592 107.722 10.0596C107.722 13.5533 105.854 15.2399 102.3 15.2399ZM119.709 0.421875H125.732L132.9 19.6371H127.178L126.274 16.8662H119.046L118.142 19.6371H112.541C112.601 19.6371 119.709 0.421875 119.709 0.421875ZM124.889 12.5292L123.383 7.8911C123.082 6.98756 122.841 5.84309 122.72 4.99979H122.54C122.419 5.84309 122.178 6.98756 121.877 7.8911L120.371 12.5292H124.889ZM128.383 0.482096L135.551 12.8304H135.611V19.6973H141.393V12.8304L148.561 0.482096H142.719L140.128 5.24072C139.526 6.26472 138.803 7.77062 138.623 8.79462H138.502C138.321 7.77062 137.538 6.26472 136.996 5.24072L134.406 0.482096H128.383Z" fill="black"/>
</svg>
