<svg width="80" height="80" viewBox="0 0 80 80" fill="none" xmlns="http://www.w3.org/2000/svg">
<circle cx="40" cy="40" r="38.5" fill="#FAF7F4" stroke="black" stroke-width="3"/>
<g clip-path="url(#clip0_1601_5764)">
<path d="M57.0934 38.5721C56.0358 26.8442 39.6426 14.343 39.6426 14.343C39.6426 14.343 23.2494 26.8442 22.1917 38.5721C21.2663 47.9803 26.4222 54.553 33.5612 57.2595C37.3951 58.6771 41.7578 58.6771 45.5917 57.2595C52.8629 54.553 57.8866 47.9803 57.0934 38.5721Z" stroke="black" stroke-width="3" stroke-miterlimit="10"/>
<path d="M40.9646 27.6174L41.6256 65.8943H37.6595L38.3205 27.6174H40.9646Z" fill="black"/>
<path d="M46.7816 35.6078C46.385 36.3811 45.9883 36.7678 45.4595 37.2833C44.9307 37.7988 44.4019 38.1854 43.8731 38.572C42.6833 39.3453 41.3612 39.8608 39.907 40.2475L39.3782 36.3811C40.3036 36.3811 41.3612 36.1234 42.1544 35.7367C42.5511 35.6078 43.0799 35.3501 43.4765 35.0923C43.8731 34.8346 44.2697 34.4479 44.5341 34.1902L46.7816 35.6078Z" fill="black"/>
<path d="M34.7511 34.3191C35.0155 34.5768 35.4121 34.9635 35.8087 35.2212C36.2053 35.479 36.6019 35.7368 37.1307 35.8656C38.0561 36.2523 38.9816 36.3811 39.907 36.51L39.3782 40.3764C37.9239 40.1186 36.6019 39.4742 35.4121 38.701C34.8833 38.3143 34.3544 37.9277 33.8256 37.4122C33.2968 36.8967 32.9002 36.3811 32.5036 35.7368L34.7511 34.3191Z" fill="black"/>
<path d="M49.2934 45.9182C48.8968 46.9493 48.368 47.7225 47.707 48.4958C47.046 49.2691 46.2527 49.9135 45.4595 50.5579C44.5341 51.0734 43.6087 51.5889 42.6833 51.8466C41.6256 52.1044 40.7002 52.2333 39.6426 52.3621V48.4958C40.3036 48.4958 41.0968 48.4958 41.7578 48.3669C42.4188 48.238 43.0799 47.9803 43.7409 47.7225C44.4019 47.4648 44.9307 46.9493 45.4595 46.5626C45.9883 46.0471 46.5172 45.4027 46.7816 44.8872L49.2934 45.9182Z" fill="black"/>
<path d="M32.3714 45.0161C32.6358 45.5316 33.1646 46.176 33.6935 46.6915C34.2223 47.207 34.8833 47.5937 35.4121 47.8514C36.0731 48.1092 36.7341 48.3669 37.3952 48.4958C38.0562 48.6247 38.8494 48.6247 39.5104 48.6247V52.4911C38.4528 52.3622 37.3952 52.3622 36.4697 51.9755C35.4121 51.7178 34.4867 51.2023 33.6935 50.6868C32.768 50.1712 32.107 49.398 31.446 48.6247C30.785 47.8514 30.2562 47.0782 29.8596 46.0471L32.3714 45.0161Z" fill="black"/>
</g>
<defs>
<clipPath id="clip0_1601_5764">
<rect width="39" height="54" fill="white" transform="translate(20.0764 11.8943)"/>
</clipPath>
</defs>
</svg>
