<svg width="32" height="32" viewBox="0 0 32 32" fill="none" xmlns="http://www.w3.org/2000/svg">
<g clip-path="url(#clip0_1754_410)">
<path d="M27.744 22.3755H8.896L5.72296 7.09045L1.06396 6.07645V5.00244H8.09998L11.1 19.4714H25.557L29.296 7.87146H30.943L27.744 22.3755Z" fill="white"/>
<path d="M11.83 28.1014C11.4062 28.1012 10.992 27.9754 10.6397 27.7398C10.2874 27.5042 10.0129 27.1694 9.85081 26.7778C9.68877 26.3862 9.64649 25.9554 9.72929 25.5397C9.81209 25.1241 10.0163 24.7424 10.316 24.4428C10.6158 24.1431 10.9976 23.9391 11.4133 23.8565C11.8289 23.7739 12.2598 23.8164 12.6513 23.9786C13.0428 24.1409 13.3775 24.4156 13.6129 24.7679C13.8483 25.1203 13.974 25.5346 13.974 25.9584C13.9732 26.5267 13.747 27.0715 13.3451 27.4732C12.9431 27.875 12.3983 28.1009 11.83 28.1014Z" fill="white"/>
<path d="M24.758 28.1015C24.3341 28.1015 23.9198 27.9758 23.5674 27.7403C23.215 27.5048 22.9403 27.1701 22.7781 26.7785C22.6159 26.387 22.5735 25.9561 22.6562 25.5404C22.7389 25.1247 22.943 24.7428 23.2427 24.4431C23.5424 24.1434 23.9243 23.9393 24.34 23.8566C24.7557 23.7739 25.1866 23.8164 25.5782 23.9786C25.9697 24.1408 26.3044 24.4154 26.5398 24.7679C26.7753 25.1203 26.901 25.5346 26.901 25.9584C26.9002 26.5266 26.6742 27.0712 26.2725 27.4729C25.8708 27.8746 25.3261 28.1007 24.758 28.1015Z" fill="white"/>
<path d="M19.6653 15.8984H18.0056V11.3545C18.0056 11.2614 18.0056 11.1504 18.0056 11.0215C18.0092 10.889 18.0128 10.7529 18.0164 10.6133C18.0235 10.4701 18.0289 10.3268 18.0325 10.1836C18.0396 10.0404 18.045 9.90967 18.0486 9.7915C18.0307 9.81299 18.0002 9.84521 17.9573 9.88818C17.9143 9.93115 17.866 9.97949 17.8123 10.0332C17.7585 10.0833 17.703 10.1353 17.6458 10.189C17.5885 10.2427 17.533 10.291 17.4792 10.334L16.5769 11.0591L15.7712 10.0601L18.301 8.0459H19.6653V15.8984Z" fill="white"/>
</g>
<defs>
<clipPath id="clip0_1754_410">
<rect width="29.874" height="24.203" fill="white" transform="translate(1.06299 3.89844)"/>
</clipPath>
</defs>
</svg>
