<svg width="32" height="32" viewBox="0 0 32 32" fill="none" xmlns="http://www.w3.org/2000/svg">
<g clip-path="url(#clip0_1754_399)">
<path d="M21.6494 19.5184C23.005 17.9241 23.7754 15.9146 23.8329 13.8227C23.8904 11.7308 23.2316 9.68195 21.9656 8.01562C20.6995 6.34929 18.9023 5.16543 16.8714 4.66012C14.8406 4.15481 12.6982 4.35839 10.7989 5.23712C8.89958 6.11585 7.35746 7.61699 6.42791 9.49194C5.49836 11.3669 5.23717 13.5031 5.68761 15.5468C6.13805 17.5904 7.27308 19.419 8.90471 20.7294C10.5364 22.0398 12.5667 22.7536 14.6594 22.7524C16.0779 22.7509 17.4769 22.4221 18.7474 21.7914L25.2604 27.5494L26.5254 26.5114L21.6494 19.5184ZM14.6594 7.11843C15.5207 7.09699 16.3776 7.24812 17.1797 7.56292C17.9817 7.87773 18.7127 8.34986 19.3295 8.95147C19.9462 9.55309 20.4364 10.272 20.771 11.066C21.1057 11.8599 21.2781 12.7128 21.2781 13.5744C21.2781 14.436 21.1057 15.2889 20.771 16.0829C20.4364 16.8768 19.9462 17.5958 19.3295 18.1974C18.7127 18.799 17.9817 19.2711 17.1797 19.5859C16.3776 19.9007 15.5207 20.0519 14.6594 20.0304C11.1014 20.0304 8.1314 17.7684 8.1314 13.6064C8.1314 9.44444 10.9494 7.11343 14.6594 7.11343V7.11843Z" fill="white"/>
</g>
<defs>
<clipPath id="clip0_1754_399">
<rect width="21.053" height="23.097" fill="white" transform="translate(5.47339 4.45142)"/>
</clipPath>
</defs>
</svg>
