<svg width="32" height="32" viewBox="0 0 32 32" fill="none" xmlns="http://www.w3.org/2000/svg">
<g clip-path="url(#clip0_1754_402)">
<path d="M12.2274 20.8857C11.7931 20.6881 11.4551 20.3263 11.2875 19.8797C11.1198 19.433 11.1364 18.9381 11.3334 18.5037L11.5614 18.0037L14.8374 19.4926L14.6094 19.9926C14.4117 20.4267 14.0498 20.7646 13.6032 20.932C13.1566 21.0994 12.6617 21.0828 12.2274 20.8857Z" fill="white" stroke="white" stroke-width="0.25"/>
<path d="M18.7385 5.73462L18.4275 6.3616C19.1843 6.64296 19.8305 7.1604 20.2704 7.8374C20.7104 8.51441 20.9208 9.31503 20.8706 10.1209C20.8204 10.9267 20.5121 11.695 19.9915 12.3121C19.4708 12.9292 18.7654 13.3624 17.9795 13.5476L20.6005 14.7816C21.3938 14.2116 22.0051 13.4241 22.3605 12.5143C22.716 11.6044 22.8003 10.611 22.6033 9.65427C22.4064 8.69749 21.9367 7.81822 21.2509 7.12265C20.565 6.42708 19.6924 5.94499 18.7385 5.73462Z" fill="white" stroke="white" stroke-width="0.25"/>
<path d="M9.38644 12.2356C9.28644 12.1886 9.19242 12.1356 9.09542 12.0776C8.23522 11.6027 7.53329 10.8859 7.07662 10.0159C6.61995 9.14593 6.42859 8.16107 6.52633 7.18338C6.62406 6.20569 7.00657 5.27819 7.62643 4.51582C8.24628 3.75346 9.07621 3.18976 10.0134 2.89459L9.76144 2.37759L9.70541 2.27759C8.2566 2.55924 6.95164 3.33792 6.01577 4.47919C5.0799 5.62046 4.57188 7.05269 4.57943 8.52859C4.62212 9.76104 4.99886 10.9587 5.66939 11.9937C6.33993 13.0286 7.27907 13.8619 8.38644 14.4046L24.1974 21.9826L22.3614 25.0906H17.2274C16.6254 25.0953 16.0326 25.2386 15.495 25.5095C14.9573 25.7804 14.4894 26.1716 14.1274 26.6526C13.6789 27.2395 13.1111 27.7246 12.4614 28.0761C11.8118 28.4275 11.0951 28.6373 10.3584 28.6916L10.0894 29.2426C10.7658 29.5744 11.509 29.7475 12.2624 29.7486C13.6084 29.7486 14.3274 29.6146 15.0624 28.6916C15.288 28.3184 15.6072 28.0105 15.9883 27.7984C16.3694 27.5864 16.7993 27.4775 17.2354 27.4826H23.6994L27.5614 20.9456L9.38644 12.2356Z" fill="white" stroke="white" stroke-width="0.25"/>
</g>
<defs>
<clipPath id="clip0_1754_402">
<rect width="23.459" height="27.735" fill="white" transform="translate(4.27051 2.13257)"/>
</clipPath>
</defs>
</svg>
